# xmcd
#
# Track frame offsets: 
#        150
#        12581
#        27302
#        40398
#        50709
#        60626
#        75170
#        92078
#        105062
#        123012
#        136081
#        146947
#        162392
#        176275
#        190721
#        212412
#        227232
#
# Disc length: 3191 seconds
#
# Revision: 3
# Processed by: cddbd v1.5.2PL0 Copyright (c) Steve Scherf et al.
# Submitted via: ExactAudioCopyFreeDBPlugin 1.0
#
DISCID=d70c7511
DTITLE=Pierre Perret - Le plaisir des dieux
DYEAR=2011
DGENRE=Variété française
TTITLE0=La pute au grand cœur
TTITLE1=Les moines de Saint-Bernardin
TTITLE2=Le père Dupanloup
TTITLE3=Ô mon berger fidèle
TTITLE4=Les trois orfèvres
TTITLE5=La carotte
TTITLE6=En revenant du Piémont
TTITLE7=Ô ma mère
TTITLE8=Pot-pourri paillard 1
TTITLE9=Le plaisir des dieux
TTITLE10=Jean-Gilles
TTITLE11=Les poils du cul
TTITLE12=La patrouille
TTITLE13=Adieu, fais-toi putain
TTITLE14=Le grenadier de Flandre
TTITLE15=Les filles de Camaret
TTITLE16=Le petit-fils d'Œdipe
EXTD=Intégrale 1957 - 2011
EXTT0=
EXTT1=
EXTT2=
EXTT3=
EXTT4=
EXTT5=
EXTT6=
EXTT7=
EXTT8=
EXTT9=
EXTT10=
EXTT11=
EXTT12=
EXTT13=
EXTT14=
EXTT15=
EXTT16=
PLAYORDER=
